<svg width="62" height="20" viewBox="0 0 62 20" fill="none" xmlns="http://www.w3.org/2000/svg">
<path d="M26.3374 14.5319V10.013L30.7884 14.5319H33.2682V14.4146L28.1481 9.26888L32.8693 4.38558V4.3269H30.3766L26.3354 8.64198V4.3269H24.3323V14.5319H26.3374ZM36.7072 14.7502C37.8618 14.7502 39.1221 14.357 39.9278 13.5839L38.7422 12.4619C38.3025 12.884 37.4211 13.1349 36.7371 13.1349C35.4159 13.1349 34.6252 12.4936 34.5046 11.6043H40.3475C40.3635 11.3716 40.3784 11.1524 40.3784 10.9312C40.3784 8.42373 38.8589 7.15558 36.5656 7.15558C34.1347 7.15558 32.5852 8.72948 32.5852 10.9168C32.5882 13.2051 34.1227 14.7502 36.7052 14.7502H36.7072ZM38.5757 10.1294H34.5325C34.8207 9.19578 35.6113 8.72948 36.6264 8.72948C37.7072 8.72948 38.4531 9.19578 38.5737 10.1294H38.5757ZM43.0338 17.8259V13.6858C43.58 14.4877 44.7197 14.7358 45.5264 14.7358C47.9276 14.7358 49.3094 13.0445 49.3094 10.9457C49.3094 8.83043 47.7749 7.18438 45.4655 7.18438C44.6149 7.18438 43.628 7.51998 43.0358 8.33813L42.9139 7.34688H41.178V17.8269L43.0338 17.8259ZM45.327 13.0013C44.0508 13.0013 43.2003 12.0677 43.2003 10.9457C43.2003 9.82363 43.9911 8.90448 45.327 8.90448C46.6632 8.90448 47.4536 9.82268 47.4536 10.9457C47.4536 12.0686 46.6015 13.0013 45.3249 13.0013H45.327ZM52.0645 14.5319V4.34038H50.2235V14.5319H52.0645ZM55.291 14.5319V10.7418C55.291 9.39578 56.188 8.91503 57.1595 8.91503C57.7675 8.91503 58.1165 9.10733 58.497 9.38228L59.3325 7.83628C58.9225 7.47188 58.1775 7.16328 57.403 7.16328C56.659 7.16328 55.8385 7.29403 55.291 8.16893L55.1545 7.33823H53.435V14.5252L55.291 14.5319Z" fill="#313131"/>
<path d="M0 8.5C0 5.22655 5.96046e-08 3.58987 0.7368 2.38751C1.14908 1.71473 1.71473 1.14908 2.38751 0.736795C3.58986 -1.19209e-07 5.22655 0 8.5 0H11.5C14.7734 0 16.4101 -1.19209e-07 17.6125 0.736795C18.2852 1.14908 18.8509 1.71473 19.2631 2.38751C20 3.58987 20 5.22655 20 8.5V11.5C20 14.7734 20 16.4101 19.2631 17.6125C18.8509 18.2853 18.2852 18.851 17.6125 19.2632C16.4101 20 14.7734 20 11.5 20H8.5C5.22655 20 3.58986 20 2.38751 19.2632C1.71473 18.851 1.14908 18.2853 0.7368 17.6125C5.96046e-08 16.4101 0 14.7734 0 11.5V8.5Z" fill="url(#paint0_linear_366_2232)"/>
<path d="M0 8.5C0 5.22655 5.96046e-08 3.58987 0.7368 2.38751C1.14908 1.71473 1.71473 1.14908 2.38751 0.736795C3.58986 -1.19209e-07 5.22655 0 8.5 0H11.5C14.7734 0 16.4101 -1.19209e-07 17.6125 0.736795C18.2852 1.14908 18.8509 1.71473 19.2631 2.38751C20 3.58987 20 5.22655 20 8.5V11.5C20 14.7734 20 16.4101 19.2631 17.6125C18.8509 18.2853 18.2852 18.851 17.6125 19.2632C16.4101 20 14.7734 20 11.5 20H8.5C5.22655 20 3.58986 20 2.38751 19.2632C1.71473 18.851 1.14908 18.2853 0.7368 17.6125C5.96046e-08 16.4101 0 14.7734 0 11.5V8.5Z" fill="url(#paint1_radial_366_2232)"/>
<path d="M0 8.5C0 5.22655 5.96046e-08 3.58987 0.7368 2.38751C1.14908 1.71473 1.71473 1.14908 2.38751 0.736795C3.58986 -1.19209e-07 5.22655 0 8.5 0H11.5C14.7734 0 16.4101 -1.19209e-07 17.6125 0.736795C18.2852 1.14908 18.8509 1.71473 19.2631 2.38751C20 3.58987 20 5.22655 20 8.5V11.5C20 14.7734 20 16.4101 19.2631 17.6125C18.8509 18.2853 18.2852 18.851 17.6125 19.2632C16.4101 20 14.7734 20 11.5 20H8.5C5.22655 20 3.58986 20 2.38751 19.2632C1.71473 18.851 1.14908 18.2853 0.7368 17.6125C5.96046e-08 16.4101 0 14.7734 0 11.5V8.5Z" fill="url(#paint2_radial_366_2232)"/>
<path d="M0 8.5C0 5.22655 5.96046e-08 3.58987 0.7368 2.38751C1.14908 1.71473 1.71473 1.14908 2.38751 0.736795C3.58986 -1.19209e-07 5.22655 0 8.5 0H11.5C14.7734 0 16.4101 -1.19209e-07 17.6125 0.736795C18.2852 1.14908 18.8509 1.71473 19.2631 2.38751C20 3.58987 20 5.22655 20 8.5V11.5C20 14.7734 20 16.4101 19.2631 17.6125C18.8509 18.2853 18.2852 18.851 17.6125 19.2632C16.4101 20 14.7734 20 11.5 20H8.5C5.22655 20 3.58986 20 2.38751 19.2632C1.71473 18.851 1.14908 18.2853 0.7368 17.6125C5.96046e-08 16.4101 0 14.7734 0 11.5V8.5Z" fill="url(#paint3_radial_366_2232)"/>
<path d="M7.6327 15.5V10.6281L12.3667 15.5H15V15.3736L9.5554 9.82692L14.58 4.56322V4.5H11.9298L7.6327 9.15122V4.5H5.5V15.5H7.6327Z" fill="white"/>
<defs>
<linearGradient id="paint0_linear_366_2232" x1="10" y1="0" x2="10" y2="20" gradientUnits="userSpaceOnUse">
<stop stop-color="#1FD1FF"/>
<stop offset="1" stop-color="#1BB8FF"/>
</linearGradient>
<radialGradient id="paint1_radial_366_2232" cx="0" cy="0" r="1" gradientUnits="userSpaceOnUse" gradientTransform="translate(0.955347 19.2422) rotate(-45.1556) scale(32.0737 32.5535)">
<stop stop-color="#232DE3"/>
<stop offset="1" stop-color="#232DE3" stop-opacity="0"/>
</radialGradient>
<radialGradient id="paint2_radial_366_2232" cx="0" cy="0" r="1" gradientUnits="userSpaceOnUse" gradientTransform="translate(18.9228 19.8858) rotate(-138.45) scale(20.0542 30.5769)">
<stop stop-color="#8B4DFF"/>
<stop offset="1" stop-color="#8B4DFF" stop-opacity="0"/>
</radialGradient>
<radialGradient id="paint3_radial_366_2232" cx="0" cy="0" r="1" gradientUnits="userSpaceOnUse" gradientTransform="translate(9.8334 0.148332) rotate(90) scale(15.7683 38.2582)">
<stop stop-color="#24D5FF"/>
<stop offset="1" stop-color="#1BB8FF" stop-opacity="0"/>
</radialGradient>
</defs>
</svg>
