<svg width="62" height="20" viewBox="0 0 62 20" fill="none" xmlns="http://www.w3.org/2000/svg">
<g clip-path="url(#clip0_366_2234)">
<path d="M24.8706 13.262H28.3634V14.9476H22.7446V4.34778H24.8706V13.262Z" fill="#313131"/>
<path d="M37.5355 10.5588C37.5355 10.8625 37.5153 11.1358 37.4748 11.3788H31.3244C31.375 11.9863 31.5876 12.4621 31.9622 12.8063C32.3368 13.1506 32.7975 13.3226 33.3441 13.3226C34.1338 13.3226 34.6957 12.9835 35.0298 12.3052H37.3229C37.0799 13.1151 36.6142 13.7833 35.9258 14.3098C35.2373 14.8261 34.392 15.0842 33.3897 15.0842C32.5798 15.0842 31.8508 14.9071 31.2029 14.5527C30.5651 14.1883 30.064 13.677 29.6995 13.0189C29.3452 12.3608 29.168 11.6016 29.168 10.7411C29.168 9.87036 29.3452 9.10601 29.6995 8.44794C30.0538 7.78988 30.5499 7.28368 31.1878 6.92934C31.8255 6.575 32.5595 6.39783 33.3897 6.39783C34.1895 6.39783 34.9033 6.56993 35.5309 6.91416C36.1688 7.25837 36.6598 7.74938 37.004 8.3872C37.3583 9.01488 37.5355 9.73876 37.5355 10.5588ZM35.3335 9.95136C35.3234 9.40466 35.126 8.96933 34.7413 8.64536C34.3565 8.31127 33.8858 8.14422 33.329 8.14422C32.8025 8.14422 32.357 8.30621 31.9926 8.63018C31.6383 8.94402 31.4205 9.38441 31.3396 9.95136H35.3335Z" fill="#313131"/>
<path d="M38.5406 10.7106C38.5406 9.86024 38.7076 9.10601 39.0418 8.44794C39.386 7.78988 39.8466 7.28368 40.4237 6.92934C41.0109 6.575 41.6639 6.39783 42.3827 6.39783C43.0104 6.39783 43.5571 6.52438 44.0228 6.77748C44.4986 7.03058 44.8783 7.34948 45.1617 7.7342V6.53451H47.303V14.9476H45.1617V13.7175C44.8884 14.1123 44.5087 14.4413 44.0228 14.7046C43.5469 14.9577 42.9952 15.0842 42.3675 15.0842C41.6589 15.0842 41.0109 14.902 40.4237 14.5376C39.8466 14.1731 39.386 13.6618 39.0418 13.0038C38.7076 12.3356 38.5406 11.5712 38.5406 10.7106ZM45.1617 10.7411C45.1617 10.2247 45.0605 9.78431 44.858 9.41985C44.6556 9.04526 44.3822 8.76178 44.038 8.56943C43.6938 8.36695 43.3242 8.26571 42.9294 8.26571C42.5346 8.26571 42.1701 8.36188 41.836 8.55424C41.5019 8.7466 41.2286 9.03007 41.0159 9.40466C40.8135 9.76913 40.7122 10.2045 40.7122 10.7106C40.7122 11.2168 40.8135 11.6623 41.0159 12.0471C41.2286 12.4216 41.5019 12.7101 41.836 12.9126C42.1802 13.1151 42.5447 13.2163 42.9294 13.2163C43.3242 13.2163 43.6938 13.1202 44.038 12.9278C44.3822 12.7253 44.6556 12.4418 44.858 12.0774C45.0605 11.7028 45.1617 11.2573 45.1617 10.7411Z" fill="#313131"/>
<path d="M51.5054 7.74938C51.7788 7.36467 52.1534 7.04576 52.6292 6.79266C53.1152 6.52944 53.6669 6.39783 54.2845 6.39783C55.0032 6.39783 55.6512 6.575 56.2283 6.92934C56.8155 7.28368 57.2761 7.78988 57.6102 8.44794C57.9544 9.09588 58.1265 9.85012 58.1265 10.7106C58.1265 11.5712 57.9544 12.3356 57.6102 13.0038C57.2761 13.6618 56.8155 14.1731 56.2283 14.5376C55.6512 14.902 55.0032 15.0842 54.2845 15.0842C53.6669 15.0842 53.1202 14.9577 52.6444 14.7046C52.1787 14.4515 51.799 14.1326 51.5054 13.7478V18.9566H49.3794V6.53451H51.5054V7.74938ZM55.955 10.7106C55.955 10.2045 55.8486 9.76913 55.636 9.40466C55.4335 9.03007 55.1602 8.7466 54.816 8.55424C54.4819 8.36188 54.1174 8.26571 53.7226 8.26571C53.3379 8.26571 52.9734 8.36695 52.6292 8.56943C52.2951 8.76178 52.0217 9.04526 51.8092 9.41985C51.6067 9.79443 51.5054 10.2348 51.5054 10.7411C51.5054 11.2472 51.6067 11.6876 51.8092 12.0622C52.0217 12.4368 52.2951 12.7253 52.6292 12.9278C52.9734 13.1202 53.3379 13.2163 53.7226 13.2163C54.1174 13.2163 54.4819 13.1151 54.816 12.9126C55.1602 12.7101 55.4335 12.4216 55.636 12.0471C55.8486 11.6724 55.955 11.227 55.955 10.7106Z" fill="#313131"/>
<mask id="mask0_366_2234" style="mask-type:luminance" maskUnits="userSpaceOnUse" x="0" y="3" width="19" height="13">
<path d="M18.9518 3.1864H0.285706V15.3141H18.9518V3.1864Z" fill="white"/>
</mask>
<g mask="url(#mask0_366_2234)">
<path d="M17.1 11.5583C17.1 14.2292 13.8403 15.3146 9.79296 15.3146C5.74562 15.3146 2.43848 14.2292 2.43848 11.5583C2.43848 8.88736 5.72189 6.72607 9.76925 6.72607C13.8166 6.72607 17.1 8.89208 17.1 11.5583Z" fill="#4BAF74"/>
<path d="M16.36 5.73537C16.36 4.32912 15.2117 3.18713 13.7978 3.18713C13.0006 3.18713 12.2889 3.55049 11.8191 4.11677C11.1786 3.9752 10.4954 3.89498 9.78835 3.89498C9.08143 3.89498 8.39814 3.97048 7.75757 4.11677C7.28311 3.55049 6.57139 3.18713 5.779 3.18713C4.36504 3.18713 3.2168 4.32912 3.2168 5.73537C3.2168 6.19783 3.34016 6.62725 3.55368 7.00005C3.34965 7.4342 3.24052 7.89665 3.24052 8.37799C3.24052 10.8554 6.17282 12.861 9.78835 12.861C13.4039 12.861 16.3362 10.8554 16.3362 8.37799C16.3362 7.89665 16.2271 7.4342 16.0231 7.00005C16.2366 6.62725 16.36 6.19783 16.36 5.73537Z" fill="#4BC174"/>
<path d="M5.57501 7.15407C6.43977 7.15407 7.1408 6.45686 7.1408 5.59681C7.1408 4.73676 6.43977 4.03955 5.57501 4.03955C4.71024 4.03955 4.00922 4.73676 4.00922 5.59681C4.00922 6.45686 4.71024 7.15407 5.57501 7.15407Z" fill="#EEEEEE"/>
<path d="M13.926 7.15407C14.7907 7.15407 15.4917 6.45686 15.4917 5.59681C15.4917 4.73676 14.7907 4.03955 13.926 4.03955C13.0612 4.03955 12.3602 4.73676 12.3602 5.59681C12.3602 6.45686 13.0612 7.15407 13.926 7.15407Z" fill="#EEEEEE"/>
<path d="M4.73552 15.1241C5.0724 15.1241 5.33812 14.8315 5.30016 14.5012C5.16256 13.3309 4.57895 10.7968 2.01199 9.27258C-1.40428 7.24343 1.30027 14.2275 1.30027 14.2275L0.593287 14.6334C0.356046 14.7701 0.455688 15.1241 0.726142 15.1241H4.73552Z" fill="#4BC174"/>
<path d="M14.9343 15.1241C14.6307 15.1241 14.3934 14.8315 14.4266 14.5012C14.5453 13.3356 15.0767 10.7968 17.3921 9.27258C20.4811 7.24343 18.0375 14.2275 18.0375 14.2275L18.678 14.6334C18.8916 14.7701 18.8013 15.1241 18.5594 15.1241H14.9343Z" fill="#4BC174"/>
<path d="M5.5732 5.87878C5.73043 5.87878 5.85789 5.75201 5.85789 5.59564C5.85789 5.43926 5.73043 5.3125 5.5732 5.3125C5.41597 5.3125 5.28851 5.43926 5.28851 5.59564C5.28851 5.75201 5.41597 5.87878 5.5732 5.87878Z" fill="#0D0D0D"/>
<path d="M13.9214 5.87878C14.0786 5.87878 14.2061 5.75201 14.2061 5.59564C14.2061 5.43926 14.0786 5.3125 13.9214 5.3125C13.7642 5.3125 13.6367 5.43926 13.6367 5.59564C13.6367 5.75201 13.7642 5.87878 13.9214 5.87878Z" fill="#0D0D0D"/>
</g>
</g>
<defs>
<clipPath id="clip0_366_2234">
<rect width="61.4286" height="20" fill="white" transform="translate(0.285706)"/>
</clipPath>
</defs>
</svg>
